<?xml version="1.0" encoding="UTF-8" standalone="no"?> <!-- Created with Vectornator for iOS (http://vectornator.io/) --><!DOCTYPE svg PUBLIC "-//W3C//DTD SVG 1.1//EN" "http://www.w3.org/Graphics/SVG/1.1/DTD/svg11.dtd">
<svg height="100%" style="fill-rule:evenodd;clip-rule:evenodd;stroke-linecap:round;stroke-linejoin:round;" xmlns:xlink="http://www.w3.org/1999/xlink" xmlns="http://www.w3.org/2000/svg" xml:space="preserve" width="100%" xmlns:vectornator="http://vectornator.io" version="1.1" viewBox="0 0 240 80">
<metadata>
<vectornator:setting key="DisplayWhiteBackground" value="1"/>
<vectornator:setting key="RulersVisible" value="1"/>
<vectornator:setting key="SnapToEdges" value="0"/>
<vectornator:setting key="Units" value="Pixels"/>
<vectornator:setting key="DynamicGuides" value="1"/>
<vectornator:setting key="SnapToPoints" value="0"/>
<vectornator:setting key="CMYKEnabledKey" value="0"/>
<vectornator:setting key="SnapToGrid" value="0"/>
<vectornator:setting key="SnapToGuides" value="0"/>
<vectornator:setting key="ShowGrid" value="0"/>
<vectornator:setting key="GridSpacing" value="200"/>
</metadata>
<defs>
<radialGradient cx="40" r="40" id="RadialGradient" gradientUnits="userSpaceOnUse" gradientTransform="matrix(1 0 0 1 400 -400)" cy="440">
<stop stop-color="#000000" offset="0"/>
<stop stop-color="#75117c" offset="1"/>
</radialGradient>
<linearGradient y1="125.791" id="LinearGradient" x1="40.5311" y2="164.431" x2="40.2256" gradientUnits="userSpaceOnUse" gradientTransform="matrix(1 0 0 1 80 -80)">
<stop stop-color="#ff0000" offset="0"/>
<stop stop-color="#300000" offset="0.973231"/>
</linearGradient>
</defs>
<g id="Layer 1" vectornator:layerName="Layer 1">
<path d="M80+7.46001e-07L160+7.46001e-07L160+80L80+80L80+7.46001e-07Z" opacity="1" fill="#f7d54d"/>
<path d="M160+0L240+0L240+80L160+80L160+0Z" opacity="1" fill="#87f5e2"/>
<path d="M240+0L320+0L320+80L240+80L240+0Z" opacity="1" fill="#d396de"/>
<path d="M320+0L400+0L400+80L320+80L320+0Z" opacity="1" fill="#7f7cff"/>
<path d="M400+7.46001e-07L480+7.46001e-07L480+80L400+80L400+7.46001e-07Z" opacity="1" fill="url(#RadialGradient)"/>
<g opacity="1">
<path d="M-9.68648e-07+7.46001e-07L80+7.46001e-07L80+80L-9.68648e-07+80L-9.68648e-07+7.46001e-07Z" opacity="1" fill="#293054"/>
<g opacity="1">
<path d="M26.114+10.2621C9.70095+17.0836+1.92891+35.9107+8.75044+52.3237C15.572+68.7368+34.399+76.5088+50.812+69.6873C57.3481+66.9708+62.4492+62.3083+65.8694+56.6931C64.9228+57.2332+64.0207+57.8356+62.9882+58.2648C49.5841+63.8357+34.1771+57.4755+28.6061+44.0714C23.0351+30.6673+29.3953+15.2603+42.7995+9.6893C43.8319+9.26018+44.8953+9.0457+45.9459+8.75582C39.5532+7.21899+32.6501+7.54562+26.114+10.2621Z" opacity="1" fill="#fff8c7"/>
<path d="M41.0536+40L39.5146+36.6013L36.0732+36.0563L38.5634+33.4107L37.9755+29.6752L41.0536+31.4389L44.1317+29.6752L43.5439+33.4107L46.0341+36.0563L42.5927+36.6013L41.0536+40Z" opacity="1" fill="#fff8c7"/>
<path d="M67.9042+40L60.7509+35.4381L52.9376+38.7446L55.0657+30.5317L49.5067+24.1226L57.9752+23.6087L62.3528+16.3412L65.4585+24.2364L73.723+26.1539L67.1739+31.5474L67.9042+40Z" opacity="1" fill="#fff8c7"/>
<path d="M49.5067+50.8007L50.5374+48.9622L49.6071+47.0708L51.6742+47.4829L53.1855+46.0137L53.4324+48.107L55.2967+49.0903L53.3821+49.9719L53.023+52.0489L51.5929+50.5005L49.5067+50.8007Z" opacity="1" fill="#fff8c7"/>
</g>
</g>
<g opacity="1">
<path d="M117.919+21.6833C117.924+22.0421+117.639+22.3402+117.282+22.3492C116.925+22.3582+116.632+22.0746+116.627+21.7158C116.621+21.3571+116.906+21.0589+117.263+21.05C117.62+21.041+117.913+21.3246+117.919+21.6833Z" opacity="1" fill="#8c563f"/>
<g opacity="1">
<path d="M109.343+48.7478C117.901+47.6576+121.64+47.9321+128.281+45.7682C138.709+42.3702+145.167+44.9604+145.167+48.1968C145.167+51.4331+138.335+58.1782+130.464+58.1782C122.592+58.1782+106.132+49.1568+109.343+48.7478Z" opacity="1" fill="#ff4d4d"/>
<path d="M94.1581+58.1722C94.1581+55.2668+94.1289+53.3418+94.8371+49.5919C94.9888+49.4906+96.5936+45.0487+106.865+45.2684C117.136+45.4881+122.516+53.0837+144.871+47.539C146.84+48.9972+145.617+54.9088+145.617+57.9313C145.617+67.4046+134.417+69.1567+120.105+69.1567C105.792+69.1567+94.1581+67.6455+94.1581+58.1722Z" opacity="1" fill="url(#LinearGradient)"/>
</g>
<path d="M120+11.85L114.938+11.8738L115.906+22.8625L120+22.7911L124.094+22.8625L125.063+11.8738L120+11.85Z" opacity="1" fill="#c27a54"/>
<path d="M122.007+13.0388C122.007+12.6858+122.291+12.3997+122.64+12.3997C122.99+12.3997+123.274+12.6858+123.274+13.0388C123.274+13.3918+122.99+13.678+122.64+13.678C122.291+13.678+122.007+13.3918+122.007+13.0388Z" opacity="1" fill="#8c563f"/>
<path d="M120.552+20.3174C120.562+21.035+119.977+21.6316+119.245+21.65C118.512+21.6684+117.91+21.1017+117.9+20.3841C117.889+19.6666+118.475+19.07+119.207+19.0516C119.939+19.0331+120.541+19.5999+120.552+20.3174Z" opacity="1" fill="#8c563f"/>
<path d="M123.73+13.1811C123.73+13.0835+123.807+13.0043+123.901+13.0043C123.995+13.0043+124.072+13.0835+124.072+13.1811C124.072+13.2788+123.995+13.358+123.901+13.358C123.807+13.358+123.73+13.2788+123.73+13.1811Z" opacity="1" fill="#8c563f"/>
<path d="M116.939+20.1189C116.942+20.3174+116.784+20.4824+116.587+20.4874C116.389+20.4923+116.227+20.3354+116.224+20.1369C116.221+19.9383+116.379+19.7734+116.576+19.7684C116.774+19.7634+116.936+19.9204+116.939+20.1189Z" opacity="1" fill="#8c563f"/>
<path d="M123.274+12.3997C123.274+12.2232+123.412+12.0801+123.582+12.0801C123.752+12.0801+123.89+12.2232+123.89+12.3997C123.89+12.5762+123.752+12.7192+123.582+12.7192C123.412+12.7192+123.274+12.5762+123.274+12.3997Z" opacity="1" fill="#8c563f"/>
<g opacity="1">
<path stroke="#ffffff" stroke-width="1.84" d="M115.297+20.0556C114.986+20.0557+114.734+20.2604+114.734+20.5007L114.734+30.4405C102.823+32.7547+93.8594+42.7474+93.8594+54.7409C93.8594+68.4478+105.579+69.25+120.016+69.25C134.452+69.25+146.141+68.4478+146.141+54.7409C146.141+42.7475+137.177+32.7547+125.266+30.4405L125.266+20.5007C125.266+20.2604+125.014+20.0556+124.703+20.0556L115.297+20.0556Z" fill="none" stroke-linecap="round" opacity="1" stroke-linejoin="round"/>
<path d="M115.297+20.0556C114.986+20.0557+114.734+20.2604+114.734+20.5007L114.734+30.4405C102.823+32.7547+93.8594+42.7474+93.8594+54.7409C93.8594+68.4478+105.579+69.25+120.016+69.25C134.452+69.25+146.141+68.4478+146.141+54.7409C146.141+42.7475+137.177+32.7547+125.266+30.4405L125.266+20.5007C125.266+20.2604+125.014+20.0556+124.703+20.0556L115.297+20.0556Z" opacity="0.46678" fill="#fefff9"/>
<path stroke="#ffffff" stroke-width="1.84" d="M113.689+14.8117L126.312+14.8117C127.76+14.8117+128.934+15.9856+128.934+17.4336L128.934+17.4336C128.934+18.8817+127.76+20.0556+126.312+20.0556L113.689+20.0556C112.241+20.0556+111.067+18.8817+111.067+17.4336L111.067+17.4336C111.067+15.9856+112.241+14.8117+113.689+14.8117Z" fill="none" stroke-linecap="round" opacity="1" stroke-linejoin="round"/>
<path d="M113.689+14.8117L126.312+14.8117C127.76+14.8117+128.934+15.9856+128.934+17.4336L128.934+17.4336C128.934+18.8817+127.76+20.0556+126.312+20.0556L113.689+20.0556C112.241+20.0556+111.067+18.8817+111.067+17.4336L111.067+17.4336C111.067+15.9856+112.241+14.8117+113.689+14.8117Z" opacity="0.47" fill="#fefff9"/>
</g>
<path stroke="#ffffff" stroke-width="1.84" d="M98.7643+49.5153C98.7643+49.5153+100.294+40.0595+113.69+34.8218" fill="none" stroke-linecap="round" opacity="1" stroke-linejoin="round"/>
<path d="M97.1134+53.442C97.1134+52.8722+97.5752+52.4104+98.1449+52.4104C98.7146+52.4104+99.1765+52.8722+99.1765+53.442C99.1765+54.0117+98.7146+54.4735+98.1449+54.4735C97.5752+54.4735+97.1134+54.0117+97.1134+53.442Z" opacity="1" fill="#ffffff"/>
</g>
<path stroke="#432853" stroke-width="1.49" d="M350.188+51.9639C349.593+51.9639+348.688+52.7452+348.688+52.7452L344.969+65.4952C344.745+65.9302+345.031+66.2764+345.625+66.2764L360+66.2764L374.375+66.2764C374.969+66.2764+375.255+65.9302+375.031+65.4952L371.313+52.7452C371.313+52.7452+370.407+51.9639+369.813+51.9639L360+51.9639L350.188+51.9639Z" fill="#611f6b" stroke-linecap="round" opacity="1" stroke-linejoin="round"/>
<path stroke="#bcd4e2" stroke-width="1.49" d="M339.178+38.2959C339.178+26.796+348.5+17.4736+360+17.4736C371.5+17.4736+380.822+26.796+380.822+38.2959C380.822+49.7958+371.5+59.1183+360+59.1183C348.5+59.1183+339.178+49.7958+339.178+38.2959Z" fill="#ffffff" stroke-linecap="round" opacity="1" stroke-linejoin="round"/>
<g opacity="1">
<path stroke="#fff8cd" stroke-width="1.73" d="M456.691+64.716L440.314+56.1346L440.314+56.1346L424.177+65.1866L424.177+65.1866L427.028+46.4675L427.028+46.4675L413.696+33.4328L413.696+33.4328L431.835+30.4452L431.835+30.4452L439.732+13.3372L439.732+13.3372L448.091+30.2099L448.091+30.2099L466.304+32.6713L466.304+32.6713L453.332+46.0868L453.332+46.0868L456.691+64.716L456.691+64.716Z" fill="none" stroke-linecap="round" opacity="0.130234" stroke-linejoin="round"/>
<path stroke="#fff8cd" stroke-width="1.73" d="M412.01+41.8867C412.01+26.1193+424.541+13.3372+440+13.3372C455.459+13.3372+467.99+26.1193+467.99+41.8867C467.99+57.6542+455.459+70.4363+440+70.4363C424.541+70.4363+412.01+57.6542+412.01+41.8867Z" fill="none" stroke-linecap="round" opacity="1" stroke-linejoin="round"/>
<path stroke="#fff8cd" stroke-width="1.73" d="M439.703+13.3545L456.89+64.488L413.18+33.2211L466.579+32.5654L423.848+65.5301L439.703+13.3545Z" fill="none" stroke-linecap="round" opacity="1" stroke-linejoin="round"/>
</g>
<path d="M219.606+72.1608L219.606+72.1608L219.606+72.1608Z" opacity="1" fill="#f7d54d"/>
<path stroke="#bcd4e2" stroke-width="1.49" d="M355.021+21.3244C355.021+21.3244+343.256+25.6142+342.541+36.5338" fill="#ffffff" stroke-linecap="round" opacity="1" stroke-linejoin="round"/>
<path d="M341.687+39.148C341.687+38.6774+342.069+38.2959+342.541+38.2959C343.013+38.2959+343.396+38.6774+343.396+39.148C343.396+39.6185+343.013+40+342.541+40C342.069+40+341.687+39.6185+341.687+39.148Z" opacity="1" fill="#bcd4e2"/>
<path stroke="#d1b35f" stroke-width="0.74" d="M378.711+6.29847L376.805+14.9189C376.765+15.1018+376.595+15.325+376.406+15.4L372.905+16.7632L376.406+18.1666C376.595+18.2423+376.809+18.4647+376.849+18.6477L378.711+27.228L380.572+18.6477C380.612+18.4647+380.827+18.2423+381.016+18.1666L384.517+16.7632L381.016+15.4C380.827+15.325+380.657+15.1018+380.617+14.9189L378.711+6.29847Z" fill="#f7d54d" stroke-linecap="round" opacity="1" stroke-linejoin="round"/>
<path stroke="#d1b35f" stroke-width="0.74" d="M372.905+20.9963L371.952+25.3065C371.932+25.398+371.847+25.5096+371.753+25.5471L370.002+26.2287L371.753+26.9304C371.847+26.9682+371.954+27.0794+371.974+27.1709L372.905+31.4611L373.836+27.1709C373.856+27.0794+373.963+26.9682+374.057+26.9304L375.808+26.2287L374.057+25.5471C373.963+25.5096+373.878+25.398+373.858+25.3065L372.905+20.9963Z" fill="#f7d54d" stroke-linecap="round" opacity="1" stroke-linejoin="round"/>
<path d="M280+79.5295L277.94+61.6665L271.816+78.573L273.932+60.7164L264.074+75.7549L270.25+58.8675L257.19+71.2273L267.094+56.2194L251.536+65.2342L264.634+52.9149L247.416+58.0987L263.002+49.1322L245.053+50.2055L262.287+45.0751L244.574+41.9801L262.527+40.9624L246.005+33.8659L263.708+37.0158L249.268+26.3004L265.768+33.448L254.188+19.6914L268.595+30.4515L260.5+14.3952L272.037+28.1877L267.863+10.6974L275.908+26.7787L275.88+8.7973L280+26.3004L284.12+8.7973L284.092+26.7787L292.137+10.6974L287.963+28.1877L299.5+14.3953L291.405+30.4515L305.812+19.6914L294.232+33.448L310.732+26.3004L296.292+37.0158L313.995+33.8659L297.473+40.9624L315.426+41.9801L297.713+45.0751L314.947+50.2055L296.998+49.1322L312.584+58.0988L295.366+52.9149L308.464+65.2342L292.906+56.2194L302.81+71.2273L289.75+58.8675L295.926+75.7549L286.068+60.7164L288.184+78.573L282.06+61.6665L280+79.5295Z" opacity="1" fill="#f7ddff"/>
<path stroke="#d1915f" stroke-width="1.49" d="M280+12.7914L311.418+67.2086L248.582+67.2086L280+12.7914Z" fill="#f7d54d" stroke-linecap="round" opacity="1" stroke-linejoin="round"/>
<path stroke="#cacaca" stroke-width="0.94" d="M264.893+44.0434C264.893+44.0434+271.813+36.3896+280.35+36.3896C288.887+36.3896+295.808+44.0434+295.808+44.0434C295.808+44.0434+288.887+51.6972+280.35+51.6972C271.813+51.6972+264.893+44.0434+264.893+44.0434Z" fill="#ffffff" stroke-linecap="round" opacity="1" stroke-linejoin="round"/>
<path d="M274.457+44.0434C274.457+40.789+277.096+38.1507+280.35+38.1507C283.605+38.1507+286.243+40.789+286.243+44.0434C286.243+47.2979+283.605+49.9362+280.35+49.9362C277.096+49.9362+274.457+47.2979+274.457+44.0434Z" opacity="1" fill="#5e5d5d"/>
<path stroke="#ffffff" stroke-width="0.94" d="M172.01+19.745L175.7+47.4284L179.901+54.6381L200.646+63.363L194.341+38.6117L178.604+9.80793L172.01+19.745Z" fill="#ffb5f2" stroke-linecap="round" opacity="1" stroke-linejoin="round"/>
<path stroke="#ffffff" stroke-width="0.94" d="M172.01+19.745L180.366+26.6885L178.622+10.0894L183.928+19.7954L180.423+26.8499M175.725+47.2103L181.284+41.4304L172.01+19.745L181.4+41.3996M181.292+41.0927L200.581+63.1408M181.554+41.3441L185.478+35.1004L194.113+38.1996M185.544+35.2879L180.31+26.8369" fill="none" stroke-linecap="round" opacity="0.520012" stroke-linejoin="round"/>
<path stroke="#ffffff" stroke-width="0.94" d="M204.421+70.1921L209.179+42.7763L227.419+28.3887L223.68+55.238L204.421+70.1921Z" fill="#e7bcff" stroke-linecap="round" opacity="1" stroke-linejoin="round"/>
<path stroke="#ffffff" stroke-width="0.94" d="M209.406+42.9704L219.027+43.5452L227.422+28.6657M219.005+43.6745L223.732+54.9987M204.499+70.0564L212.951+43.52" fill="none" stroke-linecap="round" opacity="0.507666" stroke-linejoin="round"/>
<path stroke="#ffffff" stroke-width="0.94" d="M200.485+36.5855L198.818+24.7445L207.502+19.745L208.028+23.8674L200.485+36.5855Z" fill="#99baff" stroke-linecap="butt" opacity="1" stroke-linejoin="round"/>
<path stroke="#ffffff" stroke-width="0.94" d="M198.915+24.9428L202.38+27.9802L207.899+24.2155" fill="none" stroke-linecap="butt" opacity="0.500338" stroke-linejoin="round"/>
<g opacity="1">
<path stroke="#ffffff" stroke-width="1.43" d="M218.542+13.5193L217.625+17.7598" fill="none" stroke-linecap="round" opacity="1" stroke-linejoin="round"/>
<path stroke="#ffffff" stroke-width="1.43" d="M215.855+19.1842L214.418+18.8552" fill="none" stroke-linecap="round" opacity="1" stroke-linejoin="round"/>
<path stroke="#ffffff" stroke-width="1.43" d="M220.025+20.1389L218.588+19.8099" fill="none" stroke-linecap="round" opacity="1" stroke-linejoin="round"/>
<path stroke="#ffffff" stroke-width="1.43" d="M216.884+21.1874L215.967+25.4279" fill="none" stroke-linecap="round" opacity="1" stroke-linejoin="round"/>
</g>
<g opacity="1">
<path stroke="#ffffff" stroke-width="0.69" d="M221.463+25.4279L220.439+27.2496" fill="none" stroke-linecap="round" opacity="1" stroke-linejoin="round"/>
<path stroke="#ffffff" stroke-width="0.69" d="M219.473+27.6349L218.912+27.2597" fill="none" stroke-linecap="round" opacity="1" stroke-linejoin="round"/>
<path stroke="#ffffff" stroke-width="0.69" d="M221.103+28.7235L220.542+28.3484" fill="none" stroke-linecap="round" opacity="1" stroke-linejoin="round"/>
<path stroke="#ffffff" stroke-width="0.69" d="M219.611+28.7221L218.587+30.5438" fill="none" stroke-linecap="round" opacity="1" stroke-linejoin="round"/>
</g>
</g>
</svg>
