<?xml version="1.0" encoding="UTF-8" standalone="no"?> <!-- Created with Vectornator for iOS (http://vectornator.io/) --><!DOCTYPE svg PUBLIC "-//W3C//DTD SVG 1.1//EN" "http://www.w3.org/Graphics/SVG/1.1/DTD/svg11.dtd">
<svg height="100%" style="fill-rule:evenodd;clip-rule:evenodd;stroke-linecap:round;stroke-linejoin:round;" xmlns:xlink="http://www.w3.org/1999/xlink" xmlns="http://www.w3.org/2000/svg" xml:space="preserve" width="100%" xmlns:vectornator="http://vectornator.io" version="1.1" viewBox="0 0 240 80">
<metadata>
<vectornator:setting key="DisplayWhiteBackground" value="1"/>
<vectornator:setting key="RulersVisible" value="1"/>
<vectornator:setting key="SnapToEdges" value="0"/>
<vectornator:setting key="Units" value="Pixels"/>
<vectornator:setting key="DynamicGuides" value="1"/>
<vectornator:setting key="SnapToPoints" value="0"/>
<vectornator:setting key="CMYKEnabledKey" value="0"/>
<vectornator:setting key="SnapToGrid" value="0"/>
<vectornator:setting key="SnapToGuides" value="0"/>
<vectornator:setting key="ShowGrid" value="0"/>
<vectornator:setting key="GridSpacing" value="200"/>
</metadata>
<defs>
<radialGradient cx="40" r="40" id="RadialGradient" gradientUnits="userSpaceOnUse" gradientTransform="matrix(1 0 0 1 160 -400)" cy="440">
<stop stop-color="#000000" offset="0"/>
<stop stop-color="#75117c" offset="1"/>
</radialGradient>
<linearGradient y1="125.791" id="LinearGradient" x1="40.5311" y2="164.431" x2="40.2256" gradientUnits="userSpaceOnUse" gradientTransform="matrix(1 0 0 1 64.2727 76.825)">
<stop stop-color="#ff0000" offset="0"/>
<stop stop-color="#300000" offset="0.973231"/>
</linearGradient>
</defs>
<g id="Layer 1" vectornator:layerName="Layer 1">
<path d="M64.2727+156.825L144.273+156.825L144.273+236.825L64.2727+236.825L64.2727+156.825Z" opacity="1" fill="#f7d54d"/>
<path d="M144.273+156.825L224.273+156.825L224.273+236.825L144.273+236.825L144.273+156.825Z" opacity="1" fill="#87f5e2"/>
<path d="M0+0L80+0L80+80L0+80L0+0Z" opacity="1" fill="#d396de"/>
<path d="M80+0L160+0L160+80L80+80L80+0Z" opacity="1" fill="#7f7cff"/>
<path d="M160+7.46001e-07L240+7.46001e-07L240+80L160+80L160+7.46001e-07Z" opacity="1" fill="url(#RadialGradient)"/>
<g opacity="1">
<path d="M-15.7273+156.825L64.2727+156.825L64.2727+236.825L-15.7273+236.825L-15.7273+156.825Z" opacity="1" fill="#293054"/>
<g opacity="1">
<path d="M10.3867+167.087C-6.02631+173.909-13.7983+192.736-6.97683+209.149C-0.155305+225.562+18.6717+233.334+35.0848+226.512C41.6209+223.796+46.7219+219.133+50.1421+213.518C49.1956+214.058+48.2934+214.661+47.2609+215.09C33.8568+220.661+18.4498+214.3+12.8788+200.896C7.30787+187.492+13.6681+172.085+27.0722+166.514C28.1047+166.085+29.1681+165.871+30.2186+165.581C23.8259+164.044+16.9228+164.371+10.3867+167.087Z" opacity="1" fill="#fff8c7"/>
<path d="M25.3264+196.825L23.7873+193.426L20.3459+192.881L22.8361+190.236L22.2483+186.5L25.3264+188.264L28.4045+186.5L27.8166+190.236L30.3068+192.881L26.8654+193.426L25.3264+196.825Z" opacity="1" fill="#fff8c7"/>
<path d="M52.1769+196.825L45.0236+192.263L37.2104+195.57L39.3385+187.357L33.7794+180.948L42.2479+180.434L46.6255+173.166L49.7312+181.061L57.9958+182.979L51.4467+188.372L52.1769+196.825Z" opacity="1" fill="#fff8c7"/>
<path d="M33.7794+207.626L34.8101+205.787L33.8798+203.896L35.9469+204.308L37.4583+202.839L37.7051+204.932L39.5694+205.915L37.6549+206.797L37.2957+208.874L35.8657+207.325L33.7794+207.626Z" opacity="1" fill="#fff8c7"/>
</g>
</g>
<g opacity="1">
<path d="M102.191+178.508C102.196+178.867+101.911+179.165+101.555+179.174C101.198+179.183+100.904+178.9+100.899+178.541C100.894+178.182+101.179+177.884+101.536+177.875C101.893+177.866+102.186+178.15+102.191+178.508Z" opacity="1" fill="#8c563f"/>
<g opacity="1">
<path d="M93.6155+205.573C102.174+204.483+105.913+204.757+112.553+202.593C122.982+199.195+129.44+201.785+129.44+205.022C129.44+208.258+122.608+215.003+114.736+215.003C106.865+215.003+90.4051+205.982+93.6155+205.573Z" opacity="1" fill="#ff4d4d"/>
<path d="M78.4308+214.997C78.4308+212.092+78.4016+210.167+79.1098+206.417C79.2616+206.316+80.8663+201.874+91.1376+202.093C101.409+202.313+106.789+209.909+129.144+204.364C131.113+205.822+129.89+211.734+129.89+214.756C129.89+224.23+118.69+225.982+104.377+225.982C90.065+225.982+78.4308+224.47+78.4308+214.997Z" opacity="1" fill="url(#LinearGradient)"/>
</g>
<path d="M104.273+168.675L99.2102+168.699L100.179+179.687L104.273+179.616L108.366+179.687L109.335+168.699L104.273+168.675Z" opacity="1" fill="#c27a54"/>
<path d="M106.28+169.864C106.28+169.511+106.564+169.225+106.913+169.225C107.263+169.225+107.546+169.511+107.546+169.864C107.546+170.217+107.263+170.503+106.913+170.503C106.564+170.503+106.28+170.217+106.28+169.864Z" opacity="1" fill="#8c563f"/>
<path d="M104.825+177.142C104.835+177.86+104.25+178.457+103.517+178.475C102.785+178.493+102.183+177.927+102.173+177.209C102.162+176.492+102.748+175.895+103.48+175.877C104.212+175.858+104.814+176.425+104.825+177.142Z" opacity="1" fill="#8c563f"/>
<path d="M108.003+170.006C108.003+169.908+108.079+169.829+108.174+169.829C108.268+169.829+108.344+169.908+108.344+170.006C108.344+170.104+108.268+170.183+108.174+170.183C108.079+170.183+108.003+170.104+108.003+170.006Z" opacity="1" fill="#8c563f"/>
<path d="M101.212+176.944C101.215+177.142+101.057+177.307+100.859+177.312C100.662+177.317+100.5+177.16+100.497+176.962C100.494+176.763+100.652+176.598+100.849+176.593C101.047+176.588+101.209+176.745+101.212+176.944Z" opacity="1" fill="#8c563f"/>
<path d="M107.546+169.225C107.546+169.048+107.684+168.905+107.855+168.905C108.025+168.905+108.163+169.048+108.163+169.225C108.163+169.401+108.025+169.544+107.855+169.544C107.684+169.544+107.546+169.401+107.546+169.225Z" opacity="1" fill="#8c563f"/>
<g opacity="1">
<path stroke="#ffffff" stroke-width="1.84" d="M99.5696+176.881C99.2592+176.881+99.0071+177.085+99.0071+177.326L99.0071+187.265C87.0959+189.58+78.1321+199.572+78.1321+211.566C78.1321+225.273+89.8521+226.075+104.288+226.075C118.725+226.075+130.413+225.273+130.413+211.566C130.413+199.572+121.45+189.58+109.538+187.265L109.538+177.326C109.538+177.085+109.286+176.881+108.976+176.881L99.5696+176.881Z" fill="none" stroke-linecap="round" opacity="1" stroke-linejoin="round"/>
<path d="M99.5696+176.881C99.2592+176.881+99.0071+177.085+99.0071+177.326L99.0071+187.265C87.0959+189.58+78.1321+199.572+78.1321+211.566C78.1321+225.273+89.8521+226.075+104.288+226.075C118.725+226.075+130.413+225.273+130.413+211.566C130.413+199.572+121.45+189.58+109.538+187.265L109.538+177.326C109.538+177.085+109.286+176.881+108.976+176.881L99.5696+176.881Z" opacity="0.46678" fill="#fefff9"/>
<path stroke="#ffffff" stroke-width="1.84" d="M97.9621+171.637L110.585+171.637C112.033+171.637+113.207+172.811+113.207+174.259L113.207+174.259C113.207+175.707+112.033+176.881+110.585+176.881L97.9621+176.881C96.514+176.881+95.3401+175.707+95.3401+174.259L95.3401+174.259C95.3401+172.811+96.514+171.637+97.9621+171.637Z" fill="none" stroke-linecap="round" opacity="1" stroke-linejoin="round"/>
<path d="M97.9621+171.637L110.585+171.637C112.033+171.637+113.207+172.811+113.207+174.259L113.207+174.259C113.207+175.707+112.033+176.881+110.585+176.881L97.9621+176.881C96.514+176.881+95.3401+175.707+95.3401+174.259L95.3401+174.259C95.3401+172.811+96.514+171.637+97.9621+171.637Z" opacity="0.47" fill="#fefff9"/>
</g>
<path stroke="#ffffff" stroke-width="1.84" d="M83.037+206.34C83.037+206.34+84.5666+196.884+97.9623+191.647" fill="none" stroke-linecap="round" opacity="1" stroke-linejoin="round"/>
<path d="M81.3861+210.267C81.3861+209.697+81.8479+209.235+82.4177+209.235C82.9874+209.235+83.4492+209.697+83.4492+210.267C83.4492+210.837+82.9874+211.298+82.4177+211.298C81.8479+211.298+81.3861+210.837+81.3861+210.267Z" opacity="1" fill="#ffffff"/>
</g>
<path stroke="#432853" stroke-width="1.49" d="M110.188+51.9639C109.593+51.9639+108.688+52.7452+108.688+52.7452L104.969+65.4952C104.745+65.9302+105.031+66.2764+105.625+66.2764L120+66.2764L134.375+66.2764C134.969+66.2764+135.255+65.9302+135.031+65.4952L131.313+52.7452C131.313+52.7452+130.407+51.9639+129.813+51.9639L120+51.9639L110.188+51.9639Z" fill="#611f6b" stroke-linecap="round" opacity="1" stroke-linejoin="round"/>
<path stroke="#bcd4e2" stroke-width="1.49" d="M99.1777+38.2959C99.1777+26.796+108.5+17.4736+120+17.4736C131.5+17.4736+140.822+26.796+140.822+38.2959C140.822+49.7958+131.5+59.1183+120+59.1183C108.5+59.1183+99.1777+49.7958+99.1777+38.2959Z" fill="#ffffff" stroke-linecap="round" opacity="1" stroke-linejoin="round"/>
<g opacity="1">
<path stroke="#fff8cd" stroke-width="1.73" d="M216.691+64.716L200.314+56.1346L200.314+56.1346L184.177+65.1866L184.177+65.1866L187.028+46.4675L187.028+46.4675L173.696+33.4328L173.696+33.4328L191.835+30.4452L191.835+30.4452L199.732+13.3372L199.732+13.3372L208.091+30.2099L208.091+30.2099L226.304+32.6713L226.304+32.6713L213.332+46.0868L213.332+46.0868L216.691+64.716L216.691+64.716Z" fill="none" stroke-linecap="round" opacity="0.130234" stroke-linejoin="round"/>
<path stroke="#fff8cd" stroke-width="1.73" d="M172.01+41.8867C172.01+26.1193+184.541+13.3372+200+13.3372C215.459+13.3372+227.99+26.1193+227.99+41.8867C227.99+57.6542+215.459+70.4363+200+70.4363C184.541+70.4363+172.01+57.6542+172.01+41.8867Z" fill="none" stroke-linecap="round" opacity="1" stroke-linejoin="round"/>
<path stroke="#fff8cd" stroke-width="1.73" d="M199.703+13.3545L216.89+64.488L173.18+33.2211L226.579+32.5654L183.848+65.5301L199.703+13.3545Z" fill="none" stroke-linecap="round" opacity="1" stroke-linejoin="round"/>
</g>
<path d="M203.879+228.986L203.879+228.986L203.879+228.986Z" opacity="1" fill="#f7d54d"/>
<path stroke="#bcd4e2" stroke-width="1.49" d="M115.021+21.3244C115.021+21.3244+103.256+25.6142+102.541+36.5338" fill="#ffffff" stroke-linecap="round" opacity="1" stroke-linejoin="round"/>
<path d="M101.687+39.148C101.687+38.6774+102.069+38.2959+102.541+38.2959C103.013+38.2959+103.396+38.6774+103.396+39.148C103.396+39.6185+103.013+40+102.541+40C102.069+40+101.687+39.6185+101.687+39.148Z" opacity="1" fill="#bcd4e2"/>
<path stroke="#d1b35f" stroke-width="0.74" d="M138.711+6.29847L136.805+14.9189C136.765+15.1018+136.595+15.325+136.406+15.4L132.905+16.7632L136.406+18.1666C136.595+18.2423+136.809+18.4647+136.849+18.6477L138.711+27.228L140.572+18.6477C140.612+18.4647+140.827+18.2423+141.016+18.1666L144.517+16.7632L141.016+15.4C140.827+15.325+140.657+15.1018+140.617+14.9189L138.711+6.29847Z" fill="#f7d54d" stroke-linecap="round" opacity="1" stroke-linejoin="round"/>
<path stroke="#d1b35f" stroke-width="0.74" d="M132.905+20.9963L131.952+25.3065C131.932+25.398+131.847+25.5096+131.753+25.5471L130.002+26.2287L131.753+26.9304C131.847+26.9682+131.954+27.0794+131.974+27.1709L132.905+31.4611L133.836+27.1709C133.856+27.0794+133.963+26.9682+134.057+26.9304L135.808+26.2287L134.057+25.5471C133.963+25.5096+133.878+25.398+133.858+25.3065L132.905+20.9963Z" fill="#f7d54d" stroke-linecap="round" opacity="1" stroke-linejoin="round"/>
<path d="M40+79.5295L37.9402+61.6665L31.8163+78.573L33.9315+60.7164L24.0739+75.7549L30.25+58.8675L17.19+71.2273L27.0942+56.2194L11.5358+65.2342L24.6341+52.9149L7.41612+58.0987L23.0024+49.1322L5.05304+50.2055L22.287+45.0751L4.57397+41.9801L22.5265+40.9624L6.00472+33.8659L23.7081+37.0158L9.26817+26.3004L25.7679+33.448L14.1884+19.6914L28.595+30.4515L20.5001+14.3952L32.0369+28.1877L27.8631+10.6974L35.9082+26.7787L35.8803+8.7973L40+26.3004L44.1197+8.7973L44.0918+26.7787L52.1369+10.6974L47.9631+28.1877L59.4999+14.3953L51.405+30.4515L65.8116+19.6914L54.2321+33.448L70.7318+26.3004L56.2919+37.0158L73.9953+33.8659L57.4735+40.9624L75.426+41.9801L57.713+45.0751L74.947+50.2055L56.9976+49.1322L72.5839+58.0988L55.3659+52.9149L68.4642+65.2342L52.9058+56.2194L62.81+71.2273L49.75+58.8675L55.9261+75.7549L46.0685+60.7164L48.1836+78.573L42.0598+61.6665L40+79.5295Z" opacity="1" fill="#f7ddff"/>
<path stroke="#d1915f" stroke-width="1.49" d="M40+12.7914L71.4178+67.2086L8.58223+67.2086L40+12.7914Z" fill="#f7d54d" stroke-linecap="round" opacity="1" stroke-linejoin="round"/>
<path stroke="#cacaca" stroke-width="0.94" d="M24.8926+44.0434C24.8926+44.0434+31.8132+36.3896+40.3503+36.3896C48.8873+36.3896+55.8079+44.0434+55.8079+44.0434C55.8079+44.0434+48.8873+51.6972+40.3503+51.6972C31.8132+51.6972+24.8926+44.0434+24.8926+44.0434Z" fill="#ffffff" stroke-linecap="round" opacity="1" stroke-linejoin="round"/>
<path d="M34.4575+44.0434C34.4575+40.789+37.0958+38.1507+40.3503+38.1507C43.6048+38.1507+46.243+40.789+46.243+44.0434C46.243+47.2979+43.6048+49.9362+40.3503+49.9362C37.0958+49.9362+34.4575+47.2979+34.4575+44.0434Z" opacity="1" fill="#5e5d5d"/>
<path stroke="#ffffff" stroke-width="0.94" d="M156.282+176.57L159.972+204.253L164.174+211.463L184.918+220.188L178.614+195.437L162.877+166.633L156.282+176.57Z" fill="#ffb5f2" stroke-linecap="round" opacity="1" stroke-linejoin="round"/>
<path stroke="#ffffff" stroke-width="0.94" d="M156.282+176.57L164.639+183.513L162.895+166.914L168.201+176.62L164.695+183.675M159.997+204.035L165.557+198.255L156.282+176.57L165.673+198.225M165.564+197.918L184.853+219.966M165.827+198.169L169.751+191.925L178.386+195.025M169.817+192.113L164.583+183.662" fill="none" stroke-linecap="round" opacity="0.520012" stroke-linejoin="round"/>
<path stroke="#ffffff" stroke-width="0.94" d="M188.694+227.017L193.452+199.601L211.691+185.214L207.953+212.063L188.694+227.017Z" fill="#e7bcff" stroke-linecap="round" opacity="1" stroke-linejoin="round"/>
<path stroke="#ffffff" stroke-width="0.94" d="M193.679+199.795L203.3+200.37L211.695+185.491M203.278+200.5L208.005+211.824M188.771+226.881L197.224+200.345" fill="none" stroke-linecap="round" opacity="0.507666" stroke-linejoin="round"/>
<path stroke="#ffffff" stroke-width="0.94" d="M184.758+193.41L183.091+181.569L191.775+176.57L192.301+180.692L184.758+193.41Z" fill="#99baff" stroke-linecap="butt" opacity="1" stroke-linejoin="round"/>
<path stroke="#ffffff" stroke-width="0.94" d="M183.188+181.768L186.653+184.805L192.172+181.04" fill="none" stroke-linecap="butt" opacity="0.500338" stroke-linejoin="round"/>
<g opacity="1">
<path stroke="#ffffff" stroke-width="1.43" d="M202.815+170.344L201.898+174.585" fill="none" stroke-linecap="round" opacity="1" stroke-linejoin="round"/>
<path stroke="#ffffff" stroke-width="1.43" d="M200.128+176.009L198.691+175.68" fill="none" stroke-linecap="round" opacity="1" stroke-linejoin="round"/>
<path stroke="#ffffff" stroke-width="1.43" d="M204.298+176.964L202.861+176.635" fill="none" stroke-linecap="round" opacity="1" stroke-linejoin="round"/>
<path stroke="#ffffff" stroke-width="1.43" d="M201.156+178.012L200.239+182.253" fill="none" stroke-linecap="round" opacity="1" stroke-linejoin="round"/>
</g>
<g opacity="1">
<path stroke="#ffffff" stroke-width="0.69" d="M205.736+182.253L204.712+184.075" fill="none" stroke-linecap="round" opacity="1" stroke-linejoin="round"/>
<path stroke="#ffffff" stroke-width="0.69" d="M203.746+184.46L203.185+184.085" fill="none" stroke-linecap="round" opacity="1" stroke-linejoin="round"/>
<path stroke="#ffffff" stroke-width="0.69" d="M205.376+185.548L204.814+185.173" fill="none" stroke-linecap="round" opacity="1" stroke-linejoin="round"/>
<path stroke="#ffffff" stroke-width="0.69" d="M203.884+185.547L202.86+187.369" fill="none" stroke-linecap="round" opacity="1" stroke-linejoin="round"/>
</g>
</g>
</svg>
