<?xml version="1.0" encoding="UTF-8" standalone="no"?> <!-- Created with Vectornator for iOS (http://vectornator.io/) --><!DOCTYPE svg PUBLIC "-//W3C//DTD SVG 1.1//EN" "http://www.w3.org/Graphics/SVG/1.1/DTD/svg11.dtd">
<svg height="100%" style="fill-rule:nonzero;clip-rule:evenodd;stroke-linecap:round;stroke-linejoin:round;" xmlns:xlink="http://www.w3.org/1999/xlink" xmlns="http://www.w3.org/2000/svg" xml:space="preserve" width="100%" xmlns:vectornator="http://vectornator.io" version="1.1" viewBox="0 0 512 512">
<metadata>
<vectornator:setting key="DimensionsVisible" value="1"/>
<vectornator:setting key="PencilOnly" value="1"/>
<vectornator:setting key="SnapToPoints" value="0"/>
<vectornator:setting key="OutlineMode" value="0"/>
<vectornator:setting key="CMYKEnabledKey" value="0"/>
<vectornator:setting key="RulersVisible" value="1"/>
<vectornator:setting key="SnapToEdges" value="0"/>
<vectornator:setting key="GuidesVisible" value="1"/>
<vectornator:setting key="DisplayWhiteBackground" value="0"/>
<vectornator:setting key="doHistoryDisabled" value="0"/>
<vectornator:setting key="SnapToGuides" value="0"/>
<vectornator:setting key="TimeLapseWatermarkDisabled" value="0"/>
<vectornator:setting key="Units" value="Pixels"/>
<vectornator:setting key="DynamicGuides" value="1"/>
<vectornator:setting key="IsolateActiveLayer" value="0"/>
<vectornator:setting key="SnapToGrid" value="0"/>
</metadata>
<defs/>
<g id="Layer 1" vectornator:layerName="Layer 1" visibility="hidden">
<path d="M512+262.972C512+121.587+397.385+6.97229+256+6.97229C114.615+6.97229+0+121.587+0+262.972C0+404.357+114.615+518.972+256+518.972C397.385+518.972+512+404.357+512+262.972Z" opacity="1" fill="#e08395"/>
</g>
<g id="youtube" vectornator:layerName="youtube" visibility="hidden">
<g opacity="1">
<path d="M100.201+135.042C100.201+135.042+178.1+119.515+256+119.515C333.9+119.515+411.799+135.042+411.799+135.042C433.219+135.042+450.583+150.474+450.583+169.511L450.583+342.62C450.583+361.656+433.219+377.088+411.799+377.088C411.799+377.088+333.9+392.485+256+392.485C178.1+392.485+100.201+377.088+100.201+377.088C78.7809+377.088+61.4165+361.656+61.4165+342.62L61.4165+169.511C61.4165+150.474+78.7809+135.042+100.201+135.042Z" opacity="1" fill="#c6e6ee"/>
<path d="M324.291+259.049L213.892+306.443C211.334+307.186+209.167+306.218+209.052+304.28L209.052+207.72C209.168+205.782+211.334+204.814+213.892+205.557C213.892+205.557+334.881+259.197+324.291+256" opacity="1" fill="#e08395"/>
</g>
</g>
<g id="itch.io" vectornator:layerName="itch.io">
<path d="M195.875+234.625C191.25+234.72+186.211+235.575+180.844+237.531C169.657+243.124+157.22+260.948+148.656+294.969C140.093+328.99+132.822+348.641+136.219+362.469C149.561+381.148+185.946+370.217+199.531+352.75C201.262+346.52+203.882+338.669+206.75+330.188C219.045+331.912+236.185+333.75+254.812+333.75C255.208+333.75+255.604+333.72+256+333.719L256+246.188C255.527+246.185+255.066+246.125+254.594+246.125C244.695+246.125+235.476+246.77+226.969+247.531C223.279+243.337+212.128+234.292+195.875+234.625Z" opacity="0" fill="#e08395"/>
<g opacity="1">
<path d="M159.06+192.074C157.821+211.405+144.756+218.979+128.224+218.979C125.786+218.979+123.434+218.57+121.155+217.943L121.155+295.55C121.155+307.141+117.105+371.542+135.568+390.769C174.311+399.071+256.046+399.056+256.046+399.056C256.046+399.056+337.78+399.071+376.524+390.769C394.987+371.542+390.936+307.141+390.936+295.55L390.936+217.852C388.589+218.52+386.172+218.979+383.654+218.979C367.122+218.979+353.387+211.405+352.148+192.074L351.904+192.074C351.904+211.198+338.173+218.979+320.825+218.979C303.476+218.979+289.075+211.198+289.075+192.074C289.075+211.198+274.858+218.979+256.929+218.979C256.606+218.979+256.302+218.91+255.985+218.888C255.954+218.885+255.924+218.889+255.893+218.888C255.576+218.91+255.272+218.979+254.949+218.979C237.02+218.979+222.133+211.198+222.133+192.074C222.133+211.198+208.402+218.979+191.053+218.979C173.705+218.979+159.304+211.198+159.304+192.074L159.06+192.074ZM197.208+235.159C213.056+234.834+223.929+243.653+227.526+247.743C235.821+247+244.809+246.371+254.461+246.371C254.922+246.371+255.371+246.43+255.832+246.432C256.294+246.43+256.743+246.372+257.204+246.371C266.856+246.371+275.844+247+284.139+247.743C287.736+243.653+298.609+234.834+314.457+235.159C318.966+235.251+323.879+236.085+329.113+237.992C340.02+243.446+352.147+260.824+360.497+293.996C368.846+327.168+375.935+346.329+372.624+359.811C359.614+378.024+324.138+367.366+310.892+350.335C309.204+344.26+306.649+336.605+303.853+328.336C291.865+330.017+275.153+331.809+256.99+331.809C256.605+331.809+256.218+331.78+255.832+331.779C255.446+331.78+255.06+331.809+254.675+331.809C236.512+331.809+219.8+330.017+207.812+328.336C205.016+336.605+202.461+344.26+200.773+350.335C187.527+367.366+152.051+378.024+139.041+359.811C135.73+346.329+142.818+327.168+151.168+293.996C159.518+260.824+171.645+243.446+182.552+237.992C187.786+236.085+192.699+235.251+197.208+235.159Z" opacity="1" fill="#c6e6ee"/>
<path d="M255.832+265.75L255.832+265.964L221.797+300.943L241.42+301.309L241.42+317.427L255.832+317.427L256.046+317.427L270.458+317.427L270.458+301.309L290.081+300.943L256.046+265.964L256.046+265.75L255.954+265.872L255.832+265.75Z" opacity="1" fill="#c6e6ee"/>
<path d="M245.168+112.944C190.58+112.944+138.432+114.833+138.432+114.833L138.432+115.046C137.966+114.983+137.515+114.833+137.03+114.833C117.124+130.795+92.895+156.126+96.8707+174.615C96.8707+193.218+110.937+208.315+128.285+208.315C144.817+208.315+158.217+194.561+159.456+177.174L159.7+177.174C159.7+194.375+173.766+208.315+191.114+208.315C208.463+208.314+222.529+194.375+222.529+177.174C222.529+194.375+237.081+208.315+255.01+208.315C255.333+208.315+255.637+208.243+255.954+208.223C255.985+208.224+256.015+208.221+256.046+208.223C256.363+208.243+256.667+208.315+256.99+208.315C274.919+208.315+289.471+194.375+289.471+177.174C289.471+194.375+303.537+208.314+320.886+208.315C338.234+208.315+352.3+194.375+352.3+177.174L352.544+177.174C353.783+194.561+367.183+208.315+383.715+208.315C401.063+208.315+415.129+193.218+415.129+174.615C419.105+156.126+394.876+130.795+374.97+114.833C374.485+114.833+374.034+114.983+373.568+115.046L373.568+114.833C373.568+114.833+321.42+112.944+266.832+112.944C263.15+112.944+259.701+113.018+256.046+113.035C256.015+113.035+255.985+113.035+255.954+113.035C252.299+113.018+248.85+112.944+245.168+112.944Z" opacity="1" fill="#c6e6ee"/>
</g>
</g>
</svg>
