<?xml version="1.0" encoding="UTF-8" standalone="no"?> <!-- Created with Vectornator for iOS (http://vectornator.io/) --><!DOCTYPE svg PUBLIC "-//W3C//DTD SVG 1.1//EN" "http://www.w3.org/Graphics/SVG/1.1/DTD/svg11.dtd">
<svg height="100%" style="fill-rule:evenodd;clip-rule:evenodd;stroke-linecap:round;stroke-linejoin:round;" xmlns:xlink="http://www.w3.org/1999/xlink" xmlns="http://www.w3.org/2000/svg" xml:space="preserve" width="100%" xmlns:vectornator="http://vectornator.io" version="1.1" viewBox="0 0 1024 1024">
<metadata>
<vectornator:setting key="DisplayWhiteBackground" value="1"/>
<vectornator:setting key="RulersVisible" value="0"/>
<vectornator:setting key="GridSpacing" value="200"/>
<vectornator:setting key="Units" value="Pixels"/>
<vectornator:setting key="DynamicGuides" value="0"/>
<vectornator:setting key="SnapToPoints" value="0"/>
<vectornator:setting key="SnapToGrid" value="0"/>
<vectornator:setting key="SnapToGuides" value="1"/>
<vectornator:setting key="SnapToEdges" value="0"/>
</metadata>
<defs>
<radialGradient cx="503.528" r="120.56" id="RadialGradient" gradientUnits="userSpaceOnUse" gradientTransform="matrix(1.35563 0 0 1.35563 -197.2 -133.355)" cy="473.698">
<stop stop-color="#a27da3" offset="0"/>
<stop stop-color="#a27da3" offset="0.99044"/>
</radialGradient>
</defs>
<g id="Layer 1" vectornator:layerName="Layer 1">
<path stroke="#a27da3" stroke-width="18.85" d="M382.044+409.797C380.244+409.797+378.106+410.604+375.606+412.203C373.106+413.803+370.856+415.996+368.856+418.797C358.056+432.997+347.863+448.884+338.263+466.484C328.463+483.084+321.544+495.059+317.544+502.359C316.618+504.048+275.973+579.833+275.263+579.828C275.145+580.058+275.074+580.248+274.95+580.484C271.55+587.084+269.244+591.697+268.044+594.297C263.844+602.297+260.9+608.159+259.2+611.859C257.5+615.559+256.669+618.391+256.669+620.391C256.669+621.991+257.112+623.297+258.013+624.297C258.912+625.297+260.468+626.41+262.669+627.609C262.669+627.609+275.888+630.878+281.263+624.297C286.637+617.715+288.894+611.053+292.794+601.953C293.94+599.279+315.257+557.384+317.856+554.984C320.456+552.584+322.65+551.391+324.45+551.391C327.85+550.391+336.019+549.084+348.919+547.484C361.819+545.884+370.263+545.109+374.263+545.109L378.169+544.797L376.669+590.703L375.763+607.484L375.45+614.109C375.45+615.709+375.643+616.597+376.044+616.797C376.444+616.997+376.751+617.191+376.95+617.391C377.35+619.191+379.544+620.746+383.544+622.047C387.544+623.347+391.544+623.984+395.544+623.984C399.144+623.984+401.563+623.402+402.763+622.203L403.044+615.297L403.044+613.203C402.844+610.603+402.763+606.491+402.763+600.891C402.763+589.891+403.263+578.084+404.263+565.484C405.263+552.884+406.844+535.384+409.044+512.984C410.244+502.784+411.163+493.203+411.763+484.203C412.163+478.603+412.549+474.49+412.95+471.891C414.35+457.091+415.044+446.59+415.044+440.391C415.044+435.791+414.657+432.791+413.856+431.391C411.856+426.591+407.606+421.785+401.106+416.984C394.606+412.184+388.243+409.797+382.044+409.797Z" fill="#a27da3" stroke-linecap="butt" opacity="0" stroke-linejoin="round"/>
<path d="M537.661+172.548C531.599+172.548+524.401+175.092+515.982+180.135C507.562+185.18+499.985+192.095+493.25+200.926C353.091+401.249+166.482+732.94+123.964+809.679C118.239+821.346+115.44+830.273+115.44+836.58C115.44+841.625+116.933+845.743+119.965+848.897C122.996+852.05+193.786+858.444+211.885+837.692C229.983+816.94+320.842+647.329+341.204+632.101C404.427+584.818+469.995+587.576+502.218+606.05C510.86+611.005+504.823+654.016+502.085+692.263C499.862+723.311+497.166+750.799+497.166+750.799C497.166+750.799+493.848+783.951+494.114+803.712C494.38+823.473+501.495+829.378+501.495+829.378C501.495+834.424+521.814+840.434+535.501+843.743C552.935+847.958+571.237+842.154+584.169+838.383C596.406+834.813+600.645+828.678+603.476+813.322C606.308+797.966+609.119+703.182+612.486+663.452C615.854+623.723+621.181+568.543+628.588+497.913C632.629+465.75+635.725+435.539+637.744+407.161C639.091+389.504+640.394+376.534+641.743+368.338C646.458+321.671+648.794+288.562+648.794+269.014C648.794+254.51+647.491+245.052+644.795+240.636C638.059+225.501+623.747+210.348+601.857+195.211C579.967+180.076+558.539+172.548+537.661+172.548Z" opacity="1" fill="url(#RadialGradient)"/>
<path d="M538.562+171.646C532.501+171.646+525.302+174.19+516.883+179.234C508.464+184.278+500.887+191.194+494.151+200.025C353.992+400.348+167.384+732.039+124.866+808.778C119.141+820.444+116.341+829.372+116.341+835.678C116.341+840.723+117.835+844.842+120.867+847.995C123.897+851.148+194.688+857.542+212.786+836.79C230.884+816.038+321.744+646.428+342.106+631.199C405.328+583.917+470.897+586.674+503.119+605.148C511.762+610.103+505.725+653.114+502.987+691.362C500.764+722.409+498.068+749.897+498.068+749.897C498.068+749.897+494.75+783.05+495.016+802.811C495.282+822.572+502.397+828.477+502.397+828.477C502.396+833.522+522.716+839.533+536.402+842.842C553.836+847.057+572.139+841.253+585.071+837.481C597.308+833.912+601.546+827.777+604.378+812.421C607.209+797.065+610.02+702.281+613.388+662.551C616.755+622.821+622.082+567.641+629.489+497.011C633.531+464.849+636.626+434.638+638.645+406.26C639.992+388.602+641.295+375.633+642.644+367.437C647.359+320.77+649.695+287.66+649.695+268.113C649.696+253.608+648.392+244.151+645.696+239.734C638.961+224.6+624.648+209.446+602.758+194.309C580.868+179.174+559.44+171.646+538.562+171.646Z" opacity="1" fill="#9a6ead"/>
<path d="M858.278+386.841C779.654+388.65+649.032+410.711+502.737+449.435C268.666+511.393+83.1177+592.57+88.2259+630.673C90.0702+644.43+122.485+647.685+169.492+645.675C184.858+645.018+195.904+643.318+206.673+642.241C217.443+641.164+226.452+611.82+226.452+611.82C215.083+610.642+157.533+614.704+156.641+610.274C152.431+589.357+318.398+523.199+476.686+481.744C595.402+450.653+730.363+439.633+776.608+441.832C792.023+442.564+801.063+445.443+802.116+450.673C805.339+466.689+734.395+500.184+657.918+534.515C657.918+534.515+629.457+548.813+629.419+560.155C703.338+528.598+940.315+439.777+935.814+406.203C933.898+391.915+905.453+385.756+858.278+386.841Z" opacity="1" fill="#314f56"/>
<path d="M502.006+533.817L468.493+514.778C464.828+512.696+458.752+512.432+454.92+514.189L418.467+530.899C414.636+532.655+412.357+530.764+413.376+526.674L422.71+489.24C423.729+485.151+422.206+479.356+419.307+476.296L393.18+448.721C390.281+445.661+391.33+442.827+395.522+442.391L435.175+438.261C439.367+437.825+444.501+434.528+446.642+430.897L466.581+397.084C468.722+393.453+471.803+393.651+473.462+397.525L488.317+432.209C489.976+436.084+494.684+439.827+498.833+440.571L537.549+447.51C541.698+448.253+542.463+451.075+539.258+453.812L508.924+479.717C505.719+482.454+503.475+488.071+503.913+492.263L507.849+529.996C508.287+534.188+505.671+535.899+502.006+533.817Z" opacity="1" fill="#ffe55e"/>
</g>
</svg>
