<?xml version="1.0" encoding="UTF-8" standalone="no"?> <!-- Created with Vectornator for iOS (http://vectornator.io/) --><!DOCTYPE svg PUBLIC "-//W3C//DTD SVG 1.1//EN" "http://www.w3.org/Graphics/SVG/1.1/DTD/svg11.dtd">
<svg height="100%" style="fill-rule:nonzero;clip-rule:evenodd;stroke-linecap:round;stroke-linejoin:round;" xmlns:xlink="http://www.w3.org/1999/xlink" xmlns="http://www.w3.org/2000/svg" xml:space="preserve" width="100%" xmlns:vectornator="http://vectornator.io" version="1.1" viewBox="0 0 512 512">
<metadata>
<vectornator:setting key="DimensionsVisible" value="1"/>
<vectornator:setting key="PencilOnly" value="1"/>
<vectornator:setting key="SnapToPoints" value="0"/>
<vectornator:setting key="OutlineMode" value="0"/>
<vectornator:setting key="CMYKEnabledKey" value="0"/>
<vectornator:setting key="RulersVisible" value="1"/>
<vectornator:setting key="SnapToEdges" value="0"/>
<vectornator:setting key="GuidesVisible" value="1"/>
<vectornator:setting key="DisplayWhiteBackground" value="0"/>
<vectornator:setting key="doHistoryDisabled" value="0"/>
<vectornator:setting key="SnapToGuides" value="0"/>
<vectornator:setting key="TimeLapseWatermarkDisabled" value="0"/>
<vectornator:setting key="Units" value="Pixels"/>
<vectornator:setting key="DynamicGuides" value="1"/>
<vectornator:setting key="IsolateActiveLayer" value="0"/>
<vectornator:setting key="SnapToGrid" value="0"/>
</metadata>
<defs/>
<g id="Layer 1" vectornator:layerName="Layer 1">
<path d="M-2.39415+256C-2.39415+114.615+112.221+2.30118e-05+253.606+2.30118e-05C394.991+2.30118e-05+509.606+114.615+509.606+256C509.606+397.385+394.991+512+253.606+512C112.221+512-2.39415+397.385-2.39415+256Z" opacity="1" fill="#c7eee0"/>
<g opacity="1">
<g opacity="1">
<path d="M269.159+283.271C228.374+290.12+195.84+296.347+171.556+301.951C164.084+313.782+159.258+321.721+157.079+325.768C150.541+337.287+144.703+346.861+139.566+354.488C134.429+362.116+128.903+368.888+122.988+374.803C116.45+381.341+111.079+386.011+106.876+388.813C102.673+391.615+97.7699+393.016+92.1659+393.016C82.8259+393.016+74.6534+390.915+67.6484+386.711C60.6434+382.508+57.1409+378.228+57.1409+373.869C57.7635+373.246+61.1882+366.319+67.4149+353.087C73.6415+339.856+85.1609+323.277+101.973+303.352C101.973+300.861+101.195+297.748+99.6379+294.012C98.0812+290.276+97.3029+288.097+97.3029+287.474C97.3029+278.445+111.469+267.549+139.8+254.784C155.678+231.123+172.412+207.773+190.002+184.734C207.593+161.695+229.153+134.454+254.682+103.009C260.909+95.2257+268.848+88.8433+278.499+83.862C288.15+78.8807+297.802+76.39+307.453+76.39C317.416+76.39+324.888+77.324+329.869+79.192C334.85+81.06+338.041+83.5507+339.442+86.664C340.843+89.7773+341.544+94.136+341.544+99.74C340.299+109.08+339.52+116.085+339.209+120.755C334.539+158.426+331.036+190.727+328.701+217.657C326.366+244.588+325.199+271.44+325.199+298.215C325.199+322.81+326.289+345.382+328.468+365.93C327.534+373.402+324.265+380.173+318.661+386.244C313.057+392.316+306.519+395.351+299.047+395.351C284.726+395.351+275.308+391.771+270.793+384.61C266.279+377.449+264.022+365.307+264.022+348.184C264.022+335.731+265.734+314.093+269.159+283.271ZM208.449+248.246C214.053+247.001+222.615+245.6+234.134+244.043L271.494+238.439C274.296+195.164+277.565+164.03+281.301+145.039C269.159+159.36+244.875+193.763+208.449+248.246Z" opacity="1" fill="#286e5e"/>
</g>
<g opacity="1">
<path d="M367.026+194.11C363.694+193.424+361.342+192.738+359.97+192.052C358.598+191.366+357.716+190.435+357.324+189.259C356.932+188.083+356.687+186.074+356.589+183.232C356.295+176.568+355.854+169.953+355.266+163.387C355.168+161.819+354.874+157.164+354.384+149.422C353.894+141.68+353.649+134.33+353.649+127.372C353.649+125.608+354.555+124.138+356.368+122.962C358.181+121.786+360.46+121.198+363.204+121.198C368.496+121.198+371.142+123.599+371.142+128.401L371.289+168.679L371.289+178.969C377.855+166.621+385.278+153.881+393.559+140.749C401.84+127.617+407.206+121.051+409.656+121.051C412.792+121.051+415.438+121.664+417.594+122.889C419.75+124.114+420.877+125.51+420.975+127.078C420.093+128.744+418.182+131.782+415.242+136.192C414.066+137.858+411.959+141.092+408.921+145.894L403.776+153.979C395.544+166.817+389.811+175.613+386.577+180.366C383.343+185.119+380.599+188.524+378.345+190.582C377.267+191.562+375.699+192.395+373.641+193.081C371.583+193.767+369.378+194.11+367.026+194.11Z" opacity="1" fill="#286e5e"/>
</g>
<g opacity="1">
<path d="M348.113+303.234C347.819+302.94+347.672+302.597+347.672+302.205C347.672+301.225+348.75+300.416+350.906+299.779C353.062+299.142+356.051+298.824+359.873+298.824C363.401+298.824+365.998+299.73+367.664+301.543C369.33+303.356+370.31+305.537+370.604+308.085L367.958+317.64C370.016+314.798+372.907+312.078+376.631+309.481C380.355+306.884+384.128+304.802+387.95+303.234C391.772+301.666+394.908+300.882+397.358+300.882C402.552+300.882+406.325+301.837+408.677+303.748C411.029+305.659+412.205+308.673+412.205+312.789C406.423+327.881+402.601+344.149+400.739+361.593L402.797+368.796C401.621+371.05+399.979+372.838+397.872+374.161C395.765+375.484+392.703+376.146+388.685+376.146C386.333+376.146+384.618+375.362+383.54+373.794C382.462+372.226+381.923+370.266+381.923+367.914C381.923+361.348+382.878+354.12+384.789+346.231C386.7+338.342+388.93+330.282+391.478+322.05C392.458+318.914+392.948+317.297+392.948+317.199C392.948+315.827+392.164+315.141+390.596+315.141C388.44+315.141+385.181+316.66+380.82+319.698C376.459+322.736+371.976+327.856+367.37+335.059C362.764+342.262+359.04+351.695+356.198+363.357C356.002+363.945+355.757+365.023+355.463+366.591C355.169+368.159+354.385+369.261+353.111+369.898C351.837+370.535+349.779+370.854+346.937+370.854C343.703+370.854+341.326+370.511+339.807+369.825C338.288+369.139+337.529+367.669+337.529+365.415C337.823+364.043+338.264+362.377+338.852+360.417C344.536+337.583+348.897+319.992+351.935+307.644L348.113+303.234Z" opacity="1" fill="#286e5e"/>
</g>
<path d="M226.731+241.431C436.098+206.894+453.326+211.518+453.326+211.518C498.879+254.376+404.472+257.885+321.613+273.273C192.798+297.196+122.466+284.558+226.731+241.431Z" opacity="1" fill="#286e5e"/>
</g>
</g>
</svg>
